# Blender 3.4.1
# www.blender.org
o bent_angle_half_left_up.002
v -1.000000 1.000000 1.000000
v 1.000000 2.000000 1.000000
v -0.075480 1.462260 1.000000
v -1.000000 1.000000 -1.000000
v 1.000000 2.000000 -1.000000
v -0.076365 1.672014 -1.000000
vn -0.4472 0.8944 -0.0000
vn -0.5862 0.8057 0.0848
vn -0.2915 0.9566 -0.0000
vn -0.4453 0.8905 0.0936
vt 0.000000 0.000000
vt 0.000000 0.000000
vt 0.000000 0.000000
vt 0.000000 0.000000
vt 0.000000 0.000000
vt 0.000000 0.000000
s 0
f 1/1/1 3/3/1 4/4/1
f 6/6/2 4/4/2 3/3/2
f 6/6/3 2/2/3 5/5/3
f 2/2/4 6/6/4 3/3/4
