# Blender 3.4.1
# www.blender.org
o bent_angle_full_left.002
v -1.000000 0.000000 1.000000
v 1.000000 2.000000 1.000000
v -1.000000 0.000000 1.000000
v 1.000000 2.000000 1.000000
v -1.000000 0.000000 -1.000000
v 1.000000 2.000000 -1.000000
v -0.122184 1.323635 -1.000000
v -1.000000 0.000000 -1.000000
v -0.116726 0.883274 1.000000
vn -0.7071 0.7071 -0.0000
vn -0.6985 0.6985 0.1557
vn -0.8271 0.5485 0.1230
vn -0.5162 0.8565 -0.0000
vt 0.000000 0.000000
vt 0.000000 0.000000
vt 0.000000 0.000000
vt 0.000000 0.000000
vt 0.000000 0.000000
vt 0.000000 0.000000
s 0
f 8/5/1 3/1/1 9/6/1
f 7/4/2 9/6/2 4/2/2
f 8/5/3 9/6/3 7/4/3
f 7/4/4 4/2/4 6/3/4
l 3 2
l 1 4
l 5 7
