# Blender 3.4.1
# www.blender.org
o wall_full.002
v 1.000000 2.000000 1.000000
v 1.000000 0.000000 1.000000
v 1.000000 2.000000 -1.000000
v 1.000000 0.000000 -1.000000
v 0.933673 2.000000 -1.000000
v 0.933673 2.000000 1.000000
v 0.933673 0.000000 1.000000
v 0.933673 0.000000 -1.000000
vn 1.0000 -0.0000 -0.0000
vn -1.0000 -0.0000 -0.0000
vn -0.0000 -1.0000 -0.0000
vn -0.0000 1.0000 -0.0000
vn -0.0000 -0.0000 -1.0000
vn -0.0000 -0.0000 1.0000
vt 0.000000 0.000000
vt 1.000000 0.000000
vt 0.000000 1.000000
vt 1.000000 1.000000
vt 0.000000 1.000000
vt 0.000000 0.000000
vt 1.000000 0.000000
vt 1.000000 1.000000
s 0
f 2/2/1 3/3/1 1/1/1
f 5/5/2 7/7/2 6/6/2
f 7/7/3 4/4/3 2/2/3
f 5/5/4 1/1/4 3/3/4
f 8/8/5 3/3/5 4/4/5
f 6/6/6 2/2/6 1/1/6
f 2/2/1 4/4/1 3/3/1
f 5/5/2 8/8/2 7/7/2
f 7/7/3 8/8/3 4/4/3
f 5/5/4 6/6/4 1/1/4
f 8/8/5 5/5/5 3/3/5
f 6/6/6 7/7/6 2/2/6
